<?xml version="1.0" encoding="UTF-8" standalone="yes"?>
<svg viewBox="0 0 218.27 218.27" version="1.2" baseProfile="tiny-ps" xmlns="http://www.w3.org/2000/svg">
  <title>bimi-svg-tiny-12-ps</title>
  <defs/>
  <g id="uuid-6a070718-7988-475e-bfcf-e2902b126560">
    <g>
      <path d="m218.27,109.14c0,60.26-48.87,109.13-109.13,109.13S0,169.4,0,109.14,48.86,0,109.14,0s109.13,48.86,109.13,109.14Z" fill="#e2001a" fill-rule="evenodd"/>
      <g>
        <path d="m83.47,169.73c.95-1.01,9.82-1.5,10.64-1.66.82-.16,8.37-.98,9.19-1.14.82-.16,6.17.68,7.68,1.4,1.51.71,9.49,3.51,10.34,3.26.86-.26,7.35.72,7.88,1.05.53.33,6.51,3.57,6.78,4.23.27.65,3.25,30.83,3.25,31.48s1.19,5.36,1.19,5.36l-1.62.5-3.28,1.22-4.62,1.19-5.56.77-2.38.31-5.76.27-3.77.29h-9.97l-3.47-.15-2.41-.12-1.75-.25-3-.12-1.85-.34-2.78-.2-2.62-.88-2.31-.44-4.19-1.25-2.44-.62-2.26-1.26,7.09-40.37,1.63-3.06" fill="#fff" fill-rule="evenodd"/>
        <path d="m22.52,64.56l5.63-3.84,8.16-3.49h9.36l7.55,1.96,6.57,5.38,3.94,5.38,2.3,7.66,1.81,3.42,12.64,4.73,3.28.98,4.1-.4,5.25-2.21s1.81-1.79,2.13-2.45c.33-.65,1.31-2.77,2.3-3.1.98-.33,7.88-.98,8.54-.81.66.16,5.75,1.79,5.75,1.79,0,0,4.27.16,4.92,0,.66-.16,4.76-.65,4.76-.65l7.55,1.3,5.09,3.91,6.56,1.63,4.76,2.77,7.39,4.89,5.75,1.79,4.43,6.52,4.1,11.9,10.67,5.38,4.27,1.47,14.94,12.23s-3.12,7.33-3.61,7.33-8.7,1.47-9.19,1.3c-.49-.16-14.12-1.63-14.61-1.63s-10.51-1.96-10.51-1.96l-12.64,23.47-8.54,14.34-14.94-3.42s-12.15-4.08-13.21-4.08-10.59-.65-10.59-.65c0,0-7.06,2.77-7.55,2.77s-8.7-.49-8.7-.49l-5.25-16.22-5.42-12.31-2.79-7.66-1.97-7.99-.33-4.57-.49-5.54.98-3.1,1.48-2.28,1.31-1.96.82-1.63-3.45-.65-8.21-.16s-8.37,5.22-8.86,5.22-16.25.98-16.25.98l-10.01-3.26-7.22-6.19-2.13-8.31v-3.59l2.79-.49,4.1.33,4.43.81,2.63,1.3,3.61.98s1.48-1.3,1.97-1.3,3.45-.98,3.45-.98l1.97-.65.66-2.45,1.8-1.96.82-2.12.33-2.44-.33-2.77-1.15-2.77-2.63-2.93-2.79-2.28-5.42-2.12s-4.22.57-4.9.37c-.68-.2-4.8-2.42-4.8-2.42l.83-2.03Z" fill="#fff" fill-rule="evenodd"/>
        <path d="m128.96,216.63c-2.48-2.45-2.56-5.67-2.59-8.67-.1-7.76-1.22-15.5-.79-23.28,0-.28,0-.57,0-.85-.11-8.13-1.47-9.77-9.5-11.39-1.32-.26-2.13,0-3.11,1.17-2.91,3.4-3.05,7.44-3.19,11.49-.15,3.88-.11,7.79-.19,11.67-.01.58.39,1.44-.56,1.65-1.14.26-1.22-.74-1.33-1.41-.37-2.43-.8-4.85-.91-7.31-.27-5.87-.38-11.73-.51-17.62-.02-1.15-.02-2.62-1.2-2.82-1.42-.24-3.13-.05-4,1.54-.75,1.33-1.29,2.71-1.23,4.3.12,3.04.14,6.06.2,9.11,0,.58.56,1.42-.53,1.59-.96.13-.98-.81-1.12-1.37-.77-3.01-1.39-6.07-2.13-9.11-.53-2.19-2.16-3.22-4.25-3.5-1.98-.27-4-.29-5.99-.52-1.59-.17-2.38.38-2.86,1.97-1.51,4.91-1.96,10.03-2.61,15.07-1.22,9.21-2.45,15.83-4.17,24.94,0,0-.4-.11-1.54-.47-1.61-.54-2.01-.71-2.01-.71,1.83-12.84,3.54-22.6,6.06-35.32,1.12-5.69.08-11.16-1.54-16.51-2.33-7.73-5.56-15.2-7.92-22.91-2.26-7.37-5.49-14.8-3.45-22.97.36-1.49,1.09-2.75,1.61-4.14.85-2.28.48-3.44-2.11-3.86-2.28-.38-4.32-.34-6.11,1.26-7.39,6.63-15.84,7.73-25.22,5.16-4.02-1.1-8.07-1.96-11.77-3.89-2.81-1.45-4.79-3.96-6.26-6.62-1.98-3.53-2.37-7.52-2.09-11.57.16-2.35,1.32-3.1,3.64-2.48,4.13,1.11,8.17,2.69,12.53,2.65.95-.01,1.92.03,2.87-.09,6.08-.69,10.32-5.9,8.82-11.75-.82-3.19-3.4-5.81-6.4-7.48-2.4-1.33-5.1-2.02-7.86-2.34-1.12-.12-2.21-.56-3.27-.94-1.79-.65-3.36-1.8-3.45-3.76-.09-1.68,1.68-2.35,2.91-3.19,7.27-4.92,15.03-7.67,23.99-5.31,7.38,1.95,13.05,6.07,17.18,12.44,1.8,2.77,2.3,5.91,2.87,9.02.32,1.76,1.12,2.87,2.75,3.58,4.03,1.77,8.16,3.13,12.48,3.97,4.68.91,8.28-.56,10.61-4.75,1.56-2.79,4.01-4.09,7.14-4.18,4.03-.12,8.14-.93,11.8,1.85,1.28.97,3.08.26,4.42-.32,4.26-1.89,8.98-1.28,12.04,1.03,5.48,4.16,12.15,4.69,17.96,7.53.7.34,1.4.62,1.84,1.22,2.15,2.89,5.21,4.55,8.43,5.82,1.91.74,2.95,1.93,3.93,3.61,2.19,3.75,4.81,7.2,5.69,11.67.76,3.89,3.28,6.41,7.51,7.13,4.09.7,7.67,2.78,10.75,5.37,6.7,5.62,13.57,11.09,19.27,17.8.85,1,2.18,2.09,1.39,3.42-.63,1.07-2.22.74-3.46.71-11.44-.19-22.86-1.13-34.23-2.46-1.84-.22-3.44-1.04-5.16-1.55-1.49-.45-2.53-.33-3.11,1.38-2.53,7.27-6.85,13.57-11.08,19.9-4.88,7.28-9.02,14.62-8.5,23.95.51,9.28.35,15.99,1.56,25.2.15,1.14.42,2.67.42,3.79,0,0-.43.09-1.85.56-1.23.41-1.38.38-1.38.38-.38-2.44-.95-4.72-1.34-7.9-.8-6.79-1.02-13.61-2.24-20.35-.48-2.7-1.38-5.21-2.58-7.65-.42-.83-.65-1.98-1.83-1.9-1.3.07-1.57,1.25-1.73,2.27-.63,4.51-1.12,9.07-.62,13.61.9,8.13-.15,16.29.26,24.46Zm-17.77-125.49c-3.53,1.22-7.58.03-9.43-2.78-.48-.71-.84-1.41-1.9-1.47-4.01-.26-7.98-.82-12-.55-.89.06-1.61.15-2.24.93-5.96,7.33-10.78,15.43-16.08,23.2-1,1.47-1.4,3.02-1.26,4.81,1.21,14.61,4.89,28.54,11.63,41.6,1.57,3.06,3.35,6.06,5.25,8.93,1.16,1.78,3.2,1.01,4.3.18,1.51-1.16-.29-2.04-1.04-2.8-4.85-4.8-6.94-10.92-8.5-17.28-.13-.52-.48-1.42.55-1.59.86-.13,1.06.62,1.36,1.2.99,1.93,1.88,3.94,3.04,5.78,2.87,4.63,6.15,8.93,11.17,11.51,3.33,1.7,11.29.15,12.33-2.74,2.61-7.3,3.75-14.77-.69-21.84-2.58-4.13-5.1-8.41-8.85-11.69-1.75-1.52-3.74-2.83-5.29-4.51-1.54-1.66-3.32-2.51-5.46-2.68-1.52-.12-3.07.03-4.59-.08-.86-.06-2.16.75-2.47-.49-.29-1.11,1.13-1.34,1.87-1.84,1.42-.93,3.39-1.42,4.26-2.68,2.86-4.14,4.93-8.59,3.6-13.94-.29-1.19-2.13-1.46-1.51-3.27,1.42.62,3,.85,3.92,1.77,3.12,3.08,6.54,2.09,10.04,1.19,1.38-.37,2.74-.82,4.16-1.01,4.6-.61,6.68-4.01,8.33-7.62,1.2-2.6.39-3.61-2.5-3.91-1.6-.15-3.23-.1-4.84-.03-.53.03-1.51-.42-1.5.71,0,.69.39,1.32,1.08,1.51,1.2.31,2.49.33,3.26,1.5Zm-51.87-14.89c.24-1.94.74-4.02-.3-5.23-2.74-3.25-5.72-6.54-9.83-8.02-6-2.16-12.14-2.12-17.88.97-1.17.61-3.46.81-3.25,2.51.19,1.53,2.29,1.33,3.62,1.68,10.54,2.82,14.87,10.29,10.94,19.76-1.64,3.94-6.06,6.71-10.41,6.11-3.01-.44-6.01-.98-9-1.5-1.07-.18-1.71-.08-1.91,1.27-.66,4.24,2.21,8.66,6.4,9.58,2.42.54,4.84,1.04,7.26,1.53,6.92,1.43,13.49.57,18.89-4.16,2.79-2.43,5.65-2.99,9.02-2.58,1.99.23,4.01.33,5.92.85,5.53,1.48,6.84-1.3,9.12-5.56.67-1.27.32-2.16-1.32-2.73-4.04-1.35-7.94-3.14-12-4.42-3.96-1.26-5.17-4.06-5.27-7.75-.01-.85,0-1.69,0-2.31Zm76.41,93.03c9.05-6.8,14.48-15.37,19.12-24.53.86-1.68.91-3.65,1.18-5.53.29-1.92-1.14-2.3-2.36-2.52-1.34-.26-3.21-1.15-3.9.91-.66,2.01-2.15,2.05-3.79,2.21-1.96.18-3.85-.84-6.02-.37.85,1.91,2.5,2.1,3.97,2.57.87.28,2.21.28,1.82,1.59-.4,1.38-1.64.62-2.39.32-4.41-1.79-8.68-.44-13.1.06-8.83,1.01-13.18,10.15-13.98,16.85-.48,3.99,1.84,6.24,4.89,8,1.27.73,2.76.84,4.1.07,3.98-2.29,8.12-4.33,10.97-8.13.82-1.12,1.92-2.03,2.88-3.05.47-.49.99-1.11,1.68-.66.62.43.09,1.06-.13,1.53-1.51,3.33-3.04,6.63-4.94,10.69Zm-2.67-41.89c.04.62.06.82.05,1-.01,1.65.93,4.45,1.41,4.21,2.16-1.07,4.01.57,5.96.06.52-.16.57-.66.72-1.12.99-3.13,2.6-6.1,2.26-9.55-.1-1.03.37-1.62,1.32-2.22,5.21-3.29,8.65-7.82,9.44-14.1.1-.77-.59-2.13.92-2.26,1.35-.11,2.6.52,2.83,1.89.5,3.08,3.56,4.06,5,6.34.35.57,1.01.46,1.56.27.66-.23.31-.76.23-1.19-.71-3.74-1.66-7.43-3.76-10.63-3.61-5.5-8.52-6.55-14.05-3.07-2.36,1.49-3.8,3.87-5.1,6.23-1.97,3.57-3.77,7.23-6.2,10.51-3.55,4.76-3.61,4.72,1.59,7.79.91.56,2.07,1.21,1.78,2.32-.37,1.29-1.78.74-2.71.66-2.56-.25-3.94.46-3.26,2.86Zm-21-11.28q-6.07,2.21-5.48,6.3c.26,1.87,4.74,5.17,6.54,4.82,2.05-.4,3.35-2.45,3.16-5.01-.42-5.65-.82-11.05,3.21-16.1,4.13-5.2,5.98-11.87,10.07-17.23,1.64-2.12.73-6.54-1.09-7.64-2.61-1.59-5.49-1.49-8.33-1.27-1.73.14-2.63,1.78-3.43,3.09-.82,1.36.5,2.1,1.49,2.86.88.68,1.09,1.74.97,2.83-.62,5.56-2.98,10.25-8.45,12.13-3.8,1.33-4.93,4.03-5.83,7.2-1.14,4.07.04,6,4.07,7.14,1.04.28,2.07.59,3.1.88Zm14.73,3.53c-.95.21-1.39.31-1.84.4-2.91.59-4.6,4.21-2.5,6.14,1.72,1.58,3.16,3.38,4.84,4.97.95.9,1.99.78,2.9.5,1.07-.31.52-1.44.53-2.22,0-.94-.27-1.87-.35-2.81-.18-2.63-1.57-5.39-.54-7.85,2.66-6.35,6.96-11.83,10.37-17.79,1.22-2.12,2.81-4.19,4.36-6.2,1.05-1.38.76-2.82-.1-4.24-2.61-4.3-7.48-5.17-11.08-1.61-3.33,3.31-6.59,6.79-6.97,11.88-.05.58-.13,1.07-.57,1.54-2.42,2.72-3.33,6.11-4.13,9.5-1.24,5.28-1.19,5.3,3.97,6.93.22.08.41.31,1.08.85Zm55.08,20.08h0c1.72-.01,3.45-.17,5.14.02,1.88.21,2.54-.67,2.73-2.29.2-1.73.83-3.25,2.21-4.44,1.12-.95,1.17-2.35.26-3.21-3.05-2.85-6.21-5.65-9.79-7.81-1.74-1.07-3.81-.99-5.02.97-2.51,4.09-4.88,8.24-5.34,13.2-.22,2.37.87,3.38,2.98,3.53,2.26.13,4.55.03,6.84.03ZM40.61,58.96c2.44.34,4.44.5,6.41.87,4.97.98,8.19,4.39,11.48,7.91,2.55,2.73,3.37,5.58,3.22,9.22-.1,2.04-.8,5.09,1.58,6.19,5.12,2.37,10.49,4.21,15.78,6.21.57.23,1.37.41,1.77-.36.37-.7-.08-1.3-.5-1.81-.51-.61-1.27-.73-2.02-.94-3.91-1.17-7.81-2.39-11.7-3.62-1.54-.49-2.39-1.32-2.49-3.21-.17-3.5-.56-7.13-2.07-10.24-1.92-3.98-5.35-6.68-9.36-8.77-8.39-4.37-21.31-3.26-27.92,2.64-.59.54-.75,1.22-.55,1.75.33.91,1.02.47,1.6.11.94-.61,2.01-1.06,2.99-1.51,3.95-1.75,7.91-3.54,11.79-4.45Zm-23.41,32.28c-.43,1.99-.04,3.84.05,5.71.25,5.25,3.78,8.46,7.83,10.06,4.66,1.83,9.87,2.77,15.02,3.08,6.18.38,11.56-1.41,16.17-5.71,1.72-1.61,3.98-2.63,6.72-1.67,2.04.71,4.29.84,6.45,1.17.82.12,1.83.3,1.94-.98.09-1.12-.92-1.03-1.55-1.13-2.91-.49-5.87-.75-8.74-1.4-1.89-.42-3.48.14-4.62,1.28-2.47,2.42-5.63,3.36-8.68,4.55-6.87,2.67-13.67,1.37-20.46-.46-3.73-.99-6.15-3.19-7.65-6.75-1.06-2.51-1.53-5.19-2.47-7.76Zm85.07,15.06c-.01-.71.68-1.9-.97-1.95-1.53-.06-3.1.07-4.41.88-1.69,1.05-1.76,3.01-2.11,4.73-.33,1.56,1.2,1.4,1.97,1.9,1.43.91,1.35,1.76-.21,2.35-2.59.97-2.76,2.05-.4,3.6.84.56,1.38,1.51,2.17,2.17,1.02.87,1.94,2.73,3.35,2.05,1.68-.8.04-2.38-.18-3.5-.83-4.13.54-8.06.8-12.22Zm67.77,19.54c1.68.38,2.23-.82,2.54-2.18.36-1.51-.63-1.79-1.89-2.13-4.46-1.2-9.01-2.16-13.32-3.94-.94-.4-2.01-.6-3.03-.69-1.47-.13-3.14.07-3.53,1.7-.46,1.83,1.49,1.97,2.57,2.32,3.95,1.27,7.99,2.36,11.99,3.47,1.54.43,2.83,1.65,4.67,1.46Zm-3.23,11.93c.94-.56,2.3.54,2.4-1.16.08-1.52-.51-2.58-2-3.02-4.83-1.46-9.63-2.93-14.46-4.32-.97-.29-2.35-.83-2.92.1-.66,1.1.49,2.07,1.26,2.9.39.4.84.79,1.34,1.05,4.6,2.31,9.79,2.68,14.37,4.46Zm-61.73-58.99c-2.95-.02-5.79.25-8.23,2.22-.99.78-1.06,1.75-.98,2.76.11,1.38,1.29.79,1.99.81,3.03.07,6.07-.16,9.09.07,2.3.17,2.87-.75,2.88-2.81.01-2.16-.53-3.46-3.03-3.05-.55.08-1.14,0-1.71,0Zm8.94,73.15c.91-1.38,1.86-2.7,2.44-4.08.75-1.85,2.7-2.81,3.17-4.84.26-1.15.19-2.09-.99-1.95-2.03.21-4.19,1.52-4.68,3.11-.72,2.38-.73,5.12.05,7.76Z" fill="#1a171b" fill-rule="evenodd"/>
      </g>
    </g>
  </g>
  <g id="uuid-25783564-65f3-4d8c-89b5-9e07b9b1a0d5">
    <g>
      <path d="m95.66,43.33c-.04-.44,0-.87.16-1.28,0-.21,0-.43,0-.64,0-.11-.02-.22-.03-.33-.04-.45-.01-.9,0-1.35,0-.02,0-.04.01-.05-.13-.47-.1-.94-.09-1.42.02-.82-.01-1.63-.38-2.4-.13-.27-.29-.52-.55-.68-.29-.18-.59-.37-.91-.5-.89-.37-1.8-.34-2.7-.02-.26.09-.5.22-.75.33-.14.06-.27.14-.41.18-.36.11-.56.03-.75-.28-.28-.44-.43-.5-.93-.36-.22.06-.43.13-.64.19-.19.06-.38.12-.57.17-.63.15-1.26.29-1.89.45-.46.12-.55.31-.28.68.25.35.34.73.33,1.14-.01.88-.03,1.75-.06,2.63-.03.94-.05,1.88-.1,2.81-.02.31-.09.63-.22.92-.08.18-.27.35-.45.46-.29.18-.54.12-.77-.13-.25-.28-.37-.61-.37-.97,0-.76.01-1.51.01-2.27,0-.85-.01-1.71,0-2.56,0-.72.03-1.43.04-2.15,0-.32,0-.63-.01-.95-.03-.5-.35-.7-.85-.54-.04.01-.07.03-.11.04-.39.12-.78.25-1.18.35-.55.15-1.11.27-1.67.41-.12.03-.24.08-.35.12-.23.09-.29.24-.21.47.02.06.05.11.09.16.3.42.37.89.34,1.39-.02.38-.04.75-.04,1.13,0,1.21-.02,2.41-.01,3.62,0,.6,0,1.19-.38,1.71-.21.29-.06.51.31.54.29.02.57.02.86.03,1.05.03,2.1.09,3.14.06.59-.02,1.18-.08,1.78,0,.54.07,1.1.03,1.64.06.72.03,1.44.07,2.17.11.41.02.6-.21.49-.6-.02-.07-.06-.14-.08-.21-.04-.18-.1-.36-.1-.54,0-.96,0-1.92.02-2.88.01-.73.05-1.46.06-2.19,0-.32-.03-.63-.03-.95.02-.73.32-1.14.99-1.34.67-.2,1.31.17,1.51.83.13.45.1.89.08,1.34-.04,1.56-.07,3.12-.11,4.68-.01.49,0,.97-.3,1.41-.17.25-.02.48.29.53.2.03.4.04.6.05.55.02,1.1.03,1.65.05.52.02,1.05.04,1.57.05.5.01.67-.33.41-.72-.15-.23-.25-.51-.27-.78Z" fill="#fff" fill-rule="evenodd"/>
      <path d="m107.75,43.62c-.03-.05-.08-.1-.1-.15-.07-.24-.19-.49-.19-.73-.02-.77.01-1.53.02-2.3.02-1.74.04-3.49.05-5.23,0-.85-.01-1.71-.02-2.56,0-.5,0-1-.04-1.5-.03-.45-.32-.64-.78-.52-.18.05-.35.13-.53.18-.9.23-1.81.47-2.72.67-.37.08-.53.42-.27.7.14.15.28.35.3.53.05.52.07,1.05.03,1.57-.03.41-.35.6-.77.54-.06,0-.12-.01-.18-.03-.53-.17-1.06-.23-1.62-.25-.78-.03-1.48.19-2.13.57-.74.44-1.3,1.05-1.7,1.81-.05.09-.1.16-.16.22,0,.02,0,.04-.01.06,0,.15-.03.29-.08.43-.04.25-.09.49-.15.74,0,.09,0,.18,0,.27,0,.07-.04.12-.1.15-.02.19-.05.38-.11.56-.02.19-.06.38-.07.57-.02.21-.02.41-.04.62.01.31,0,.62-.04.93.05.21.07.42.08.63,0,0,0,.01,0,.02.13.23.25.47.34.72.27.73.77,1.27,1.4,1.72.6.42,1.3.54,2,.64.47.07.93,0,1.36-.18.36-.16.71-.35,1.05-.55.38-.21.71-.12.9.25.24.47.41.55.92.4.4-.11.78-.25,1.18-.35.61-.15,1.22-.27,1.83-.4.43-.09.56-.36.34-.72Zm-4.34-1.63c-.02.3-.11.6-.22.88-.21.55-.72.86-1.32.81-.33-.03-.6-.21-.77-.47-.15-.23-.28-.49-.35-.76-.19-.76-.19-1.55-.19-2.32,0-.93.01-1.85.19-2.77.07-.35.18-.68.27-1.02.1-.39.38-.61.75-.75.81-.3,1.69.24,1.75,1.07.02.35,0,.71,0,1.06v1.43s.02,0,.02,0c-.04.95-.07,1.9-.13,2.84Z" fill="#fff" fill-rule="evenodd"/>
      <path d="m108.15,63.21c-.03-.19-.06-.37-.06-.55,0-.02,0-.04.01-.06-.03-.17-.05-.35-.06-.53,0,0-.01,0-.02-.01-.04-.04-.04-.14-.02-.2,0-.01.01-.02.02-.03,0-.17-.02-.34-.03-.51,0-.04,0-.07.03-.1-.04-.2-.06-.41-.07-.61-.03-.1-.05-.21-.05-.35,0-.19-.04-.38-.06-.58,0-.02,0-.05,0-.07,0-.02-.01-.04-.01-.06v-.18h0c0-.1,0-.2,0-.29,0-.11,0-.22,0-.33-.06-.14-.05-.29,0-.44,0-.27-.01-.55-.02-.82,0-.06.02-.1.05-.13h0c-.02-.11-.03-.22-.03-.32-.03-.72-.04-1.44-.04-2.16,0-.29.03-.58.04-.88.02-.5-.29-.75-.79-.63-.06.01-.12.04-.18.06-.48.13-.96.28-1.44.4-.53.13-1.07.23-1.6.37-.43.11-.54.41-.27.74.3.35.34.75.32,1.17,0,.17-.03.34-.03.51-.01.83-.01,1.66-.03,2.49,0,.67-.07,1.34-.02,2.01.03.47-.36,1.05-.91,1.12-.07,0-.15.01-.22.03-.49.13-.98-.06-1.2-.5-.09-.18-.17-.39-.17-.59-.03-.78-.03-1.56-.03-2.34,0-.63.05-1.26.06-1.9.01-.67,0-1.34,0-2.01,0-.35,0-.71-.03-1.06-.02-.36-.36-.57-.69-.44-.03.01-.07.02-.11.04-1.05.35-2.12.65-3.2.88-.04,0-.07.01-.11.03-.25.09-.34.28-.21.52.03.06.07.13.12.18.22.26.3.56.3.89,0,.38,0,.76,0,1.13,0,.77-.02,1.54-.03,2.3-.01.68-.04,1.36-.04,2.04,0,.56.22,1.05.58,1.48.85,1.02,2.38,1.22,3.5.89.54-.16,1.07-.34,1.52-.68.22-.16.46-.13.65.04.12.1.21.23.28.37.09.16.2.3.38.31.21.01.42,0,.63-.05.25-.06.5-.16.74-.27.4-.17.82-.21,1.24-.26.06,0,.14,0,.18.02.31.25.79.18,1.04.53.01.02.07,0,.15,0-.02-.14-.04-.26-.06-.39,0-.08,0-.16.01-.23Z" fill="#fff" fill-rule="evenodd"/>
      <path d="m119.74,62.13c-.02-.08-.05-.16-.09-.24-.13-.28-.19-.58-.18-.89.02-.46.02-.93.01-1.39,0-.85-.03-1.71-.04-2.56,0-.85.05-1.7,0-2.55-.02-.36.03-.73.03-1.1,0-.58,0-1.17-.01-1.76-.01-.62-.03-1.24-.04-1.86-.01-.65-.27-.85-.97-.64-1,.3-1.98.67-3.02.82-.49.07-.57.35-.31.76.13.2.27.42.31.65.07.44.09.9.08,1.35,0,.5-.44.75-.92.55-.49.03-1.12-.23-1.54-.31-.2,0-.41.02-.6.08-.44.12-.88.27-1.31.43-.17.06-.33.17-.49.26-.36.2-.57.53-.83.82-.66.74-.94,1.66-1.13,2.59-.04.18-.05.35-.12.51-.01.16-.03.33-.03.5.05.1.03.18-.01.41,0,0,0,0,0,0,0,.27,0,.53.01.8.03.57.09,1.16.29,1.69.12.32.27.66.32,1,.12.18.22.37.31.55.01.03.02.06.04.08.17.11.27.21.44.39.17.18.37.42.59.47.49.12,1.01.14,1.51.21.51.08.99-.04,1.47-.17.53-.14.94-.53,1.49-.63.28-.05.38-.07.5.19.02.05.03.09.05.14.18.34.39.42.76.32.77-.22,1.53-.43,2.3-.63.23-.06.47-.09.7-.15.34-.09.5-.37.42-.7Zm-4.21-3.35c-.02.55-.03,1.09-.08,1.64-.03.32-.13.64-.23.95-.11.35-.38.57-.72.69-.1.04-.21.03-.32.03-.06,0-.12-.05-.18-.05-.66.04-.89-.44-1.05-.91-.14-.38-.17-.81-.21-1.22-.03-.35-.04-.71-.05-1.06-.02-.07-.03-.14-.03-.2-.01-.21,0-.42.02-.63.02-.28.07-.56.1-.84-.02-.23-.04-.46.03-.69.08-.29.07-.6.11-.9,0-.08.03-.14.08-.19.07-.23.18-.46.35-.62-.02,0-.04-.01-.06-.02.31-.78,1.55-.95,2.05-.18.16.24.19.58.19.87.02.91,0,1.83,0,2.74,0,.19.03.39.02.58Z" fill="#fff" fill-rule="evenodd"/>
      <path d="m133.68,43.89c-.04-.09-.09-.18-.15-.25-.23-.26-.31-.57-.3-.92.01-.35,0-.71,0-1.06.03-1,.07-2,.11-3.2-.02-.42-.03-1.04-.08-1.66-.03-.48-.21-.9-.54-1.26-.59-.63-1.36-.89-2.21-.93-1.24-.07-2.4.2-3.52.7-.57.26-1.07.58-1.49,1.03-.43.47-.69,1-.66,1.65.02.46.18.83.62,1.04,1.03.49,2.21-.12,2.21-1.24,0-.4-.08-.8-.14-1.19-.06-.38.02-.71.33-.95.48-.37,1.16-.13,1.34.46.22.74.21,1.5.12,2.25-.04.33-.25.59-.6.74-1.13.49-2.25,1-3.3,1.64-.42.26-.77.57-1.08.94-.13.16-.28.32-.46.42-.41.22-.84.42-1.26.61-.23.1-.46.21-.7.24-.43.07-.87.15-1.3.1-.72-.09-1.31-.49-1.71-1.08-.4-.58-.6-1.26-.71-1.95-.14-.91-.14-1.82.08-2.73.14-.6.35-1.17.79-1.63.18-.19.39-.3.65-.31.33-.02.55.14.64.45.07.26.02.51-.06.75-.08.24-.16.49-.22.74-.26,1.07.39,2.14,1.56,2.35.57.1,1.43-.08,1.79-.79.31-.62.33-1.24.09-1.88-.18-.49-.53-.85-.88-1.22-.31-.33-.65-.61-1.11-.7-.47-.1-.95-.2-1.43-.3-1.02-.22-1.99-.06-2.91.37-.63.3-1.2.7-1.67,1.22-.46.5-.87,1.05-1.08,1.7-.32.98-.49,1.99-.31,3.02.04.24.05.49.13.72.14.4.31.8.51,1.18.35.65.83,1.18,1.49,1.56.93.54,1.94.75,3.01.73.79-.02,1.54-.17,2.22-.57.47-.28.92-.57,1.29-.99.14-.16.33-.3.52-.41.08-.05.21-.06.31-.04.18.03.29.16.37.33.13.3.29.58.55.82.78.7,1.7.87,2.72.74.45-.06.87-.21,1.26-.43.41-.24.81-.27,1.22.02.41.29.87.47,1.38.52.36.04.69-.05,1.04-.09.55-.06.97-.37,1.38-.68.19-.15.22-.35.13-.56Zm-4.47-1.11c-.03.21-.11.43-.2.62-.13.27-.35.44-.65.5-.14.03-.22.04-.29.01-.37,0-.73-.23-.81-.59-.09-.1-.14-.24-.18-.38-.11-.4-.08-.8.02-1.19.2-.77.68-1.35,1.36-1.77.44-.27.86-.06.89.46.02.29,0,.58,0,.88,0,0,.01,0,.02,0-.05.48-.08.97-.15,1.45Z" fill="#fff" fill-rule="evenodd"/>
      <path d="m162.99,34.25c0,.71,0,1.41-.02,2.12-.02,1.25-.05,2.51-.08,3.76-.02.88-.03,1.75-.04,2.63,0,.13,0,.27-.03.4-.05.3.01.58.19.83.03.04.05.08.08.13.18.34.07.6-.3.69-.35.09-.71.15-1.06.24-.64.17-1.27.35-1.91.53-.55.15-.73.07-.94-.45-.1-.25-.38-.36-.66-.24-.18.08-.36.18-.53.27-.56.32-1.17.48-1.82.48-.67,0-1.31-.11-1.91-.44-.44-.25-.82-.55-1.1-.96-.45-.67-.72-1.39-.7-2.2.01-.67-.01-1.34.06-2,.1-.9.32-1.79.75-2.59.97-1.83,2.76-2.64,4.79-2.18.21.05.41.11.62.14.39.07.7-.1.73-.49.04-.51.03-1.02,0-1.53,0-.17-.14-.34-.23-.49-.26-.41-.16-.66.32-.78.23-.06.47-.07.7-.13.71-.2,1.41-.41,2.12-.61.17-.05.34-.09.51-.1.27-.02.43.11.47.37.03.2.04.41.04.62,0,.66,0,1.31-.01,1.97h-.04Zm-3.86,3.68s-.01,0-.02,0c0-.23,0-.46,0-.69,0-.45-.22-.81-.64-.99-.45-.2-.92-.22-1.34.12-.41.33-.59.79-.66,1.27-.19,1.34-.32,2.68-.26,4.04.02.53.03,1.07.19,1.59.18.62.56.86,1.07.93.48.07.95-.24,1.19-.72.23-.47.29-.98.3-1.49.03-.95.04-1.9.07-2.85.01-.4.06-.8.09-1.2Z" fill="#fff" fill-rule="evenodd"/>
      <path d="m75.34,59.6c0,.65-.02,1.29-.01,1.94,0,.25.04.51.08.76.08.47.49.78.97.7.26-.05.54-.14.75-.29.38-.27.73-.59,1.07-.91.72-.66,1.29-1.45,1.85-2.24.33-.46.64-.93.96-1.39.09-.13.2-.23.37-.17.2.06.23.21.2.38-.09.5-.18,1.01-.28,1.51-.16.81-.32,1.63-.5,2.44-.07.31-.17.61-.31.9-.12.26-.37.35-.66.34-.55,0-1.1,0-1.64-.02-1.09-.05-2.17-.04-3.25.01-.37.02-.75,0-1.12,0-1.03-.02-2.07-.03-3.1-.06-.12,0-.25-.03-.36-.08-.22-.1-.28-.31-.11-.48.49-.51.58-1.13.58-1.8,0-1.86.02-3.73.05-5.59.01-.78.07-1.56.08-2.34.01-.74,0-1.48,0-2.23,0-.43-.2-.79-.48-1.12-.26-.3-.21-.45.18-.51.32-.05.64-.03.97-.03.97,0,1.95,0,2.92,0,.97,0,1.94,0,2.91.02.22,0,.44.07.67.07.48.02.97.01,1.45.02.39,0,.66.21.74.59.08.37.19.74.22,1.11.05.64.25,1.24.37,1.86.03.13.05.27.05.4,0,.19-.12.27-.29.18-.11-.05-.21-.14-.27-.23-.43-.6-.85-1.2-1.28-1.79-.59-.79-1.27-1.47-2.28-1.74-.28-.08-.54-.05-.8.07-.2.1-.32.25-.4.46-.18.45-.14.92-.16,1.37-.04,1.03-.04,2.07-.04,3.1,0,.28.02.56.18.81.14.21.31.33.58.32.6-.02,1.11-.25,1.55-.64.27-.23.51-.5.65-.84.02-.06.05-.11.09-.16.15-.18.33-.18.45.02.06.1.11.23.11.34,0,.47-.03.95-.04,1.42-.02.62-.02,1.24-.04,1.86,0,.14-.04.29-.11.41-.09.16-.29.15-.4,0-.11-.16-.21-.33-.3-.51-.38-.79-1.03-1.2-1.91-1.25-.43-.03-.79.24-.84.67-.04.29-.03.58-.04.87,0,.49,0,.98-.01,1.46h0Z" fill="#fff" fill-rule="evenodd"/>
      <path d="m68.44,42.09c0-.52,0-1.05.01-1.57,0-.08,0-.17.03-.25.08-.22.33-.25.47-.06.06.08.09.17.12.26.21.63.5,1.23.88,1.77.54.76,1.17,1.43,2.14,1.67.94.24,2.08-.17,2.39-1.17.13-.41.06-.8-.1-1.17-.24-.56-.68-.96-1.16-1.31-.56-.41-1.13-.8-1.7-1.2-.51-.35-1.03-.68-1.52-1.06-.66-.52-1.22-1.11-1.52-1.91-.29-.77-.31-1.55-.22-2.34.05-.43.18-.85.35-1.26.3-.71.77-1.29,1.38-1.74.57-.42,1.21-.69,1.93-.81.76-.12,1.49-.05,2.22.13.49.12.99.23,1.48.36.34.09.66.11,1,.03.05-.01.1-.03.15-.04.5-.09.7.06.71.57.03.97.1,1.94.03,2.92,0,.01,0,.02,0,.04-.01.24-.11.41-.26.43-.17.03-.31-.09-.4-.36-.1-.28-.18-.56-.29-.83-.25-.67-.62-1.29-1.1-1.81-.52-.57-1.21-.94-2.07-.79-.97.17-1.42,1.09-1.32,1.76.12.8.56,1.32,1.18,1.78.94.69,1.95,1.26,2.94,1.89.63.4,1.22.86,1.63,1.49.34.52.56,1.08.58,1.71.02.67.02,1.34-.15,2-.17.66-.42,1.27-.91,1.77-.4.42-.83.81-1.34,1.1-.87.49-1.8.69-2.8.61-.38-.03-.77-.04-1.15-.11-.62-.12-1.24-.27-1.85-.42-.35-.09-.69-.1-1.04-.04-.06.01-.12.04-.18.04-.36.04-.55-.1-.56-.46-.02-.45,0-.9-.01-1.35,0-.09,0-.17,0-.26h.02Z" fill="#fff" fill-rule="evenodd"/>
      <path d="m140.92,59.21c0,.9-.01,1.8-.02,2.7,0,.33.04.66.18.96.02.04.04.09.05.14.09.36-.03.55-.41.57-.29.02-.57.02-.86.01-.71,0-1.42-.01-2.13-.02-.25,0-.5,0-.75-.02-.31-.01-.45-.2-.37-.49.03-.1.08-.21.14-.3.2-.3.26-.63.26-.98,0-1.06-.02-2.12-.02-3.18,0-.65.03-1.29.04-1.94,0-.53-.04-1.04-.37-1.5-.23-.31-.1-.62.3-.67,1.1-.15,2.13-.52,3.17-.85.35-.11.52-.04.71.27.3.48.5.54,1,.23.67-.42,1.39-.66,2.19-.65.6,0,1.18.1,1.69.41.8.48,1.3,1.2,1.33,2.13.05,1.47.04,2.95.06,4.42,0,.5.01,1,.03,1.5.01.34.11.66.3.97.24.4.08.66-.39.68-.31.01-.62,0-.94,0-.8,0-1.6.02-2.39.01-.67,0-.76-.17-.55-.78.1-.28.16-.59.16-.89.01-1.46,0-2.92,0-4.39,0-.39.01-.78,0-1.17-.02-.41-.13-.78-.42-1.11-.43-.49-1.64-.39-1.94.42-.08.21-.12.45-.12.68,0,.94.03,1.88.05,2.81.01,0,.02,0,.04,0Z" fill="#fff" fill-rule="evenodd"/>
      <path d="m135.09,56.85c0,1-.02,2-.02,2.99,0,.46.01.92.02,1.38,0,.32.09.59.32.83.11.11.17.27.23.41.05.13.02.26-.1.36-.68.6-1.43,1-2.39.95-.46-.03-.88-.16-1.26-.41-.14-.09-.3-.18-.45-.25-.33-.14-.65-.06-.92.13-.85.59-1.81.6-2.77.44-.64-.1-1.24-.36-1.63-.94-.35-.53-.42-1.08-.28-1.68.14-.6.5-1.06.98-1.42.29-.22.61-.43.93-.6.88-.46,1.77-.89,2.66-1.33.46-.23.74-.58.73-1.1-.01-.51-.04-1.02-.08-1.53-.01-.15-.07-.31-.14-.45-.26-.57-.61-.61-1.01-.54-.36.06-.66.47-.64.89,0,.25.05.51.13.75.29.84-.06,1.72-.85,2-.49.17-.98.14-1.43-.15-.44-.29-.58-.72-.51-1.21.14-.98.75-1.64,1.57-2.15.6-.37,1.24-.65,1.92-.8,1.06-.24,2.14-.36,3.22-.03.9.28,1.52.84,1.65,1.79.08.55.1,1.11.15,1.67,0,0-.02,0-.03,0Zm-3.95,2.77s.04,0,.06,0c-.03-.25-.03-.51-.08-.76-.07-.35-.34-.48-.67-.34-.15.06-.29.15-.41.25-.45.35-.78.79-.98,1.31-.22.56-.21,1.15-.02,1.72.14.41.58.69,1.01.68.46,0,.79-.24.95-.69.07-.19.12-.4.13-.6.02-.52.01-1.04.02-1.57Z" fill="#fff" fill-rule="evenodd"/>
      <path d="m139.44,40.52c.03-.95.27-1.84.7-2.7.49-1,1.28-1.66,2.25-2.17,1.04-.54,2.15-.64,3.28-.42,1.45.29,2.62,1.01,3.32,2.32.27.5.43,1.06.57,1.61.08.32.01.68.01,1.02,0,.07-.02.15,0,.22.21.77-.08,1.47-.34,2.16-.42,1.09-1.18,1.92-2.18,2.52-.7.42-1.47.65-2.31.64-.65-.01-1.29-.02-1.92-.23-1.02-.33-1.85-.89-2.46-1.75-.61-.85-.86-1.83-.91-2.86,0-.12,0-.24,0-.36Zm3.75,1.48c.06.63.12,1.28.18,1.94.03.3.16.56.36.79.23.26.51.33.84.26.37-.08.64-.28.76-.63.1-.27.18-.56.23-.84.08-.52.14-1.04.18-1.56.08-1.03.19-2.05.17-3.09-.01-.62-.08-1.24-.13-1.86-.04-.4-.19-.75-.52-1.02-.2-.16-.42-.24-.69-.19-.4.08-.67.32-.81.68-.24.58-.33,1.2-.36,1.82-.02.5-.01,1-.04,1.49-.04.73-.11,1.45-.17,2.21Z" fill="#fff" fill-rule="evenodd"/>
      <path d="m170.72,40.15c-.67,0-1.35,0-2.02-.02-.31,0-.56.12-.77.32-.17.15-.18.37-.17.58.03.49.16.97.42,1.39.33.53.76.96,1.4,1.14.79.23,1.55.15,2.28-.21.22-.11.44-.23.66-.34.02-.01.04-.02.07-.03.14-.05.27-.07.38.05.11.12.08.25,0,.37-.27.36-.54.73-.84,1.07-.18.2-.4.37-.6.55-.5.43-1.11.65-1.75.78-1.04.21-2.06.2-3.06-.16-.64-.23-1.23-.55-1.69-1.05-.59-.65-.99-1.39-1.16-2.25-.12-.64-.18-1.28-.12-1.93.11-1.31.58-2.48,1.51-3.46.09-.09.16-.19.24-.28.25-.28.54-.5.91-.62.8-.27,1.6-.53,2.47-.54.79,0,1.56.11,2.25.46.8.41,1.41,1.01,1.77,1.85.22.52.41,1.04.49,1.6.07.52-.19.78-.72.77-.65-.02-1.3-.01-1.95-.02h0Zm-2.92-1.79s.03,0,.04,0c0,.18-.01.37,0,.55.02.42.24.65.66.7.11.01.22.02.34.03.68.05,1.1-.43,1.06-.99-.03-.53-.09-1.07-.14-1.6-.01-.12-.04-.25-.09-.35-.14-.28-.32-.54-.67-.58-.34-.04-.57.15-.74.41-.07.11-.14.24-.17.36-.11.49-.2.98-.29,1.46Z" fill="#fff" fill-rule="evenodd"/>
      <path d="m82.28,61.53c.01-.19.02-.39.04-.58.02-.15.05-.3.23-.34.19-.04.3.08.39.22.05.08.09.17.14.26.57,1.01,1.32,1.8,2.52,2.08.45.1.84.01,1.15-.34.32-.36.38-.89.1-1.28-.14-.2-.31-.38-.51-.52-.86-.64-1.74-1.26-2.61-1.89-.55-.4-.95-.94-1.31-1.49-.13-.2-.21-.45-.24-.68-.04-.41-.06-.83-.03-1.24.03-.46.29-.85.53-1.23.48-.75,1.25-1.09,2.08-1.32.71-.2,1.41-.1,2.12.01.69.11,1.38.23,2.04.46.35.12.68.28.8.66.06.21.08.43.11.65.02.22.03.44.06.66.02.18-.04.31-.21.38-.2.08-.3-.04-.4-.18-.24-.38-.48-.77-.73-1.15-.27-.41-.67-.68-1.09-.92-.26-.15-.55-.16-.84-.13-.34.04-.59.27-.67.6-.15.61.08,1.09.55,1.45.43.34.88.64,1.34.93.88.57,1.72,1.19,2.31,2.05.32.46.47,1.03.43,1.6-.05.65-.26,1.27-.59,1.83-.25.41-.63.71-1.05.97-.99.61-2.06.77-3.2.63-.23-.03-.47-.05-.71-.08-.65-.09-1.25-.33-1.86-.54-.59-.21-.9-.66-.89-1.29,0-.07,0-.15,0-.22Z" fill="#fff" fill-rule="evenodd"/>
      <path d="m164.85,61.91c-.01-.13-.04-.27-.03-.4.01-.14.03-.3.09-.42.11-.22.33-.23.47-.03.12.16.21.33.31.5.32.54.75,1,1.27,1.36.34.24.7.46,1.14.52.48.06.85-.09,1.1-.47.23-.36.16-.72-.07-1.07-.24-.37-.62-.59-.97-.85-.65-.48-1.33-.91-1.95-1.42-.43-.36-.81-.79-1.17-1.23-.37-.45-.49-1.01-.5-1.58-.02-.9.24-1.69.97-2.27.67-.53,1.42-.86,2.3-.87.42,0,.85.04,1.27.1.42.06.84.14,1.25.24.29.07.57.18.84.3.35.15.54.43.59.79.05.37.06.75.08,1.13,0,.14-.04.27-.21.3-.17.04-.28-.04-.36-.19-.19-.33-.38-.66-.6-.97-.32-.46-.71-.86-1.26-1.05-.56-.2-1.09.05-1.25.59-.08.29-.02.58.17.79.31.33.64.65,1,.93.64.5,1.33.95,1.96,1.46,1.05.85,1.5,1.95,1.22,3.26-.24,1.1-.93,1.9-2.02,2.32-.51.2-1.04.36-1.6.36-.85,0-1.69-.14-2.5-.41-.18-.06-.35-.15-.53-.18-.31-.04-.51-.23-.72-.43-.19-.18-.29-.39-.29-.65,0-.16,0-.32,0-.47h-.01Z" fill="#fff" fill-rule="evenodd"/>
      <path d="m91.5,59.13c.05-.86.1-1.72.13-2.59.02-.47.03-.95.03-1.42,0-.27-.1-.52-.26-.75-.39-.56-.34-.78.23-1.16.69-.46,1.37-.94,2.03-1.42.3-.22.57-.48.85-.71.13-.11.27-.22.42-.3.39-.21.66-.07.71.36.03.27.01.54.02.8.01.3.03.61.03.91,0,.37.2.61.53.77.15.07.37.09.37.31,0,.22-.2.31-.37.36-.42.14-.57.45-.58.85-.02.54,0,1.07,0,1.61-.03,1.51-.07,3.02-.1,4.53,0,.19,0,.39.04.58.09.38.37.6.76.67.18.03.39.03.44.27.04.24-.12.38-.3.51-.23.18-.51.25-.79.32-.65.16-1.32.29-2,.2-1.2-.16-1.94-.82-2.09-2-.09-.72-.07-1.46-.09-2.19,0-.17,0-.34,0-.51,0,0-.01,0-.01,0Z" fill="#fff" fill-rule="evenodd"/>
      <path d="m134.32,41.63c.07-1.35.13-2.56.18-3.78.02-.32.02-.63.03-.95.01-.29-.15-.51-.28-.75-.32-.58-.29-.75.26-1.15,1.02-.74,2.04-1.48,3.06-2.22.07-.05.14-.1.22-.13.34-.14.61,0,.65.36.04.37.02.75.03,1.13,0,.16,0,.32,0,.48-.02.41.18.7.54.89.06.03.12.05.16.09.19.15.19.35,0,.49-.1.08-.22.11-.33.17-.32.18-.47.42-.46.81.02.65-.02,1.31-.04,1.97-.04,1.33-.08,2.65-.11,3.98,0,.22.02.44.05.65.03.3.23.48.52.56.21.06.43.1.47.35.03.27-.2.38-.4.48-.93.44-1.91.69-2.93.35-.86-.29-1.45-.88-1.56-1.79-.08-.7-.06-1.41-.08-1.99Z" fill="#fff" fill-rule="evenodd"/>
      <path d="m148.52,59.24c0-1.03.02-2.07.02-3.11,0-.3-.01-.61-.02-.91,0-.27-.15-.49-.29-.7-.31-.46-.28-.75.18-1.1.32-.24.69-.43,1.03-.66.49-.34.97-.68,1.45-1.03.24-.18.46-.38.7-.55.41-.29.73-.14.76.35.02.36,0,.73.01,1.1,0,.19,0,.39.04.58.04.28.19.5.46.62.17.07.39.12.4.34,0,.22-.2.29-.37.37-.21.09-.35.24-.4.45-.06.23-.12.48-.12.71,0,1.17.03,2.34.04,3.51.01.83.03,1.65.04,2.48,0,.46.31.8.78.86.19.03.35.1.39.28.04.16-.08.28-.21.36-.52.32-1.08.55-1.69.64-.68.1-1.32,0-1.93-.3-.44-.22-.75-.56-.93-1.01-.2-.52-.31-1.05-.34-1.6-.03-.56-.04-1.12-.06-1.68h.05Z" fill="#fff" fill-rule="evenodd"/>
      <path d="m113.29,37.96c0,.79-.02,1.58-.02,2.38,0,.64.03,1.29.04,1.93,0,.36-.02.73.02,1.09.03.25.14.49.26.71.21.38.07.68-.39.7-.36.02-.72,0-1.08,0-.9-.01-1.79-.03-2.69-.04-.04,0-.07,0-.11,0-.4-.02-.63-.32-.42-.65.46-.72.36-1.5.37-2.27,0-.44.03-.88.04-1.31.02-.62.03-1.24.04-1.86,0-.41,0-.83,0-1.24-.01-.37-.08-.72-.33-1.02-.3-.36-.19-.64.27-.76.72-.19,1.45-.37,2.17-.56.2-.05.4-.13.6-.19.08-.03.16-.06.25-.09.64-.2.97.02.98.66.01.84.02,1.68.03,2.52,0,0-.01,0-.02,0Z" fill="#fff" fill-rule="evenodd"/>
      <path d="m124.95,55.5c-.01,1.36-.03,2.73-.03,4.09,0,.73.03,1.46.06,2.19.01.23.09.45.15.67.03.12.1.22.12.34.05.28-.11.5-.4.51-.56.02-1.12,0-1.68.01-.61,0-1.22,0-1.83,0-.15,0-.3,0-.44-.03-.31-.06-.43-.28-.31-.57.03-.07.07-.13.11-.19.18-.26.26-.55.26-.86,0-.64-.01-1.29,0-1.93,0-.32.05-.63.05-.95,0-.96,0-1.92,0-2.89,0-.3-.08-.58-.26-.82-.05-.06-.09-.12-.13-.18-.18-.33-.08-.6.3-.71.35-.1.7-.17,1.05-.26.63-.17,1.27-.36,1.9-.53.14-.04.29-.08.43-.1.29-.03.49.1.57.36.04.13.06.26.07.4,0,.49,0,.97,0,1.46h.03Z" fill="#fff" fill-rule="evenodd"/>
      <path d="m111.25,33.27c-.65,0-1.21-.18-1.68-.62-.55-.51-.44-1.36-.04-1.79.39-.41.89-.58,1.44-.62.56-.04,1.1.08,1.59.34.49.26.81.65.84,1.22.03.51-.3,1.02-.78,1.23-.44.19-.89.32-1.37.24Z" fill="#fff" fill-rule="evenodd"/>
      <path d="m123.07,51.88c-.57-.03-1.01-.08-1.43-.29-.54-.27-.82-.69-.81-1.29.01-.57.34-.93.81-1.18.22-.12.49-.2.74-.23.7-.1,1.39,0,1.97.4.67.46.94,1.35.2,2.04-.44.42-.98.61-1.49.55Z" fill="#fff" fill-rule="evenodd"/>
      <path d="m81.51,30.15c.64.04,1.25.16,1.76.59.73.61.52,1.44,0,1.91-.37.33-.81.48-1.29.49-.66.01-1.28-.1-1.84-.47-.75-.5-.82-1.61,0-2.12.43-.27.88-.4,1.38-.39Z" fill="#fff" fill-rule="evenodd"/>
      <path d="m159,64.08h-.64s-.04-.02-.06-.02c-.42-.03-.84-.12-1.24-.25-.87-.27-1.62-.73-2.19-1.46-.56-.72-.84-1.55-1-2.42-.04-.2-.06-.41-.09-.61v-.88s.02-.06.02-.09c.09-.91.33-1.77.8-2.55.46-.77,1.09-1.37,1.94-1.68.45-.16.91-.26,1.37-.37.18-.05.37-.06.55-.09h.82s.04.02.06.02c.33.06.67.1,1,.18.87.23,1.61.67,2.16,1.39.38.49.6,1.05.77,1.64.07.24.13.47.2.71v.24c-.1.3-.33.42-.63.42-.27,0-.54.03-.82.03-.76-.01-1.52-.04-2.28-.05-.29,0-.58,0-.87,0-.16,0-.32,0-.47-.04-.23-.04-.34.08-.44.27-.11.22-.23.44-.18.7.05.27.1.55.2.8.34.83.89,1.46,1.82,1.67.75.17,1.48.14,2.19-.22.27-.14.55-.27.82-.4.1-.05.2-.06.3,0,.15.09.18.22.1.39-.08.17-.16.34-.25.51,0,.01-.02.02-.03.03-.13.14-.25.29-.38.43-.03.03-.05.06-.08.09-.09.07-.19.13-.27.21-.74.71-1.63,1.12-2.63,1.31-.19.04-.38.06-.58.09Zm.89-7.43s.01,0,.02,0c-.04-.35-.07-.7-.12-1.04-.06-.35-.17-.69-.38-.98-.31-.42-.88-.45-1.2-.06-.17.21-.29.45-.32.72-.06.54-.09,1.08-.14,1.62,0,.08,0,.16.02.23.04.23.19.38.36.53.08.07.16.09.27.1.22,0,.44.01.66.03.4.02.76-.26.81-.65.02-.16.02-.32.02-.48Z" fill="#fff" fill-rule="evenodd"/>
    </g>
  </g>
</svg>